<?xml version="1.0" encoding="utf-8" ?><svg xmlns="http://www.w3.org/2000/svg" xmlns:xlink="http://www.w3.org/1999/xlink" width="4096" height="4096" viewBox="0 0 4096 4096"><path fill="#FEC70A" d="M2046.94 707.532C2055.24 710.528 2088.37 753.78 2095.32 762.69C2195.4 890.859 2292.8 1014.75 2406.61 1131.19C2399.25 1168.94 2385.89 1219.2 2375.89 1256.96C2320.66 1465.38 2242.04 1676.53 2109.54 1848.97C2092.08 1871.69 2069.82 1900.56 2049.48 1920.42C2034.61 1914.76 1991.87 1858.16 1979.71 1841.78C1828.58 1638.14 1738.09 1378.76 1688.39 1131.85C1700.85 1113.46 1722.59 1091.91 1737.86 1075.46C1815.13 992.804 1883.78 902.482 1955.46 815.106C1983.22 781.276 2015.36 737.106 2046.94 707.532Z"/><path fill="#E93D1B" d="M2034.86 1752.51C2022.45 1737 2008.92 1711.07 1999.45 1693.08C1944.18 1588.13 1914.38 1470.32 1893.18 1354.29C1887.35 1322.41 1864.02 1206.24 1876.4 1181.96C1917.64 1101.08 1986.9 1022.52 2045.06 952.621C2090.55 1004.37 2156.76 1074.42 2188.65 1136.04C2199.38 1152.93 2212.43 1171.95 2216.93 1191.68C2226.95 1235.55 2194.69 1387.3 2183.82 1435.98C2156.26 1559.41 2114.46 1666.1 2047.55 1773.28C2043.9 1767.42 2037.84 1758.37 2034.86 1752.51Z"/><path fill="#F1331C" d="M2188.65 1136.04C2199.38 1152.93 2212.43 1171.95 2216.93 1191.68C2226.95 1235.55 2194.69 1387.3 2183.82 1435.98C2156.26 1559.41 2114.46 1666.1 2047.55 1773.28C2043.9 1767.42 2037.84 1758.37 2034.86 1752.51C2038.3 1753.22 2040.57 1755.5 2042.81 1758.06C2067.26 1732.54 2091.86 1676.77 2108.31 1644.29C2164.81 1532.66 2187.54 1405.04 2206.13 1282.32C2213.4 1234.33 2223.75 1188.63 2189.25 1147.82C2185.43 1143.32 2187.15 1140.23 2188.65 1136.04Z"/><path fill="#FEC70A" d="M2045.72 1050.83C2067.6 1060.09 2146.55 1171.55 2155.97 1195.53C2178.31 1252.38 2112.4 1497.29 2090.97 1562.08C2078.99 1598.3 2063.97 1633.34 2048.83 1668.34C2041.35 1662.41 2029.23 1633.04 2024.97 1622.08C1975.62 1495.31 1939.94 1353.09 1932.09 1217.2C1930.22 1184.77 2020.02 1073.02 2045.72 1050.83Z"/><path fill="#E93D1B" d="M2044.66 1147.42C2086.05 1192.8 2105.6 1203.65 2102.49 1270.29C2098.51 1355.54 2069.96 1426.95 2045.61 1506.38L2032.98 1465.78C2015.81 1434.31 1992.64 1328.67 1989.79 1290.36C1987.24 1256.02 1985.11 1219.72 2008.38 1191.43C2017.19 1175.9 2033.09 1162.08 2044.66 1147.42Z"/><path fill="#F1331C" d="M2044.66 1147.42C2086.05 1192.8 2105.6 1203.65 2102.49 1270.29C2098.51 1355.54 2069.96 1426.95 2045.61 1506.38L2032.98 1465.78C2041.51 1467.79 2039.81 1476.58 2048.52 1478.37C2066.55 1445.27 2095.72 1292.3 2093.82 1248.89C2091.92 1205.7 2074.2 1188.42 2045.02 1160.14C2034.45 1169.47 2019.87 1189.18 2008.38 1191.43C2017.19 1175.9 2033.09 1162.08 2044.66 1147.42Z"/><path fill="#FEC70A" d="M2723.8 969.058C2739.94 976.423 2794.81 1022.68 2811.04 1035.83C2917.53 1122.1 3022.14 1215.27 3120.38 1310.82C3170.88 1359.94 3230.21 1418.4 3274.58 1472.69C3260.26 1490.24 3217.83 1528.54 3199.36 1545.72C3063.48 1672.15 2924.71 1775.02 2765.26 1869.06C2671.9 1920.77 2607.94 1952.32 2507.66 1988.29C2475.39 1960.78 2439.15 1923.74 2408.58 1893.84C2385.72 1871.48 2350.73 1838.41 2331.04 1814.31C2334.62 1807.02 2338.55 1799.5 2342.37 1792.32C2459.86 1571.52 2551.69 1338.78 2653.64 1110.75C2674.92 1063.14 2698.42 1014.59 2723.8 969.058Z"/><path fill="#E93D1B" d="M2790.64 1197.15C2897.36 1282.85 2980.39 1356.28 3076.23 1454.17C3036.79 1495.82 2996.58 1537.26 2955.95 1577.72C2948.93 1584.71 2914.34 1620.09 2907.69 1624.59C2891.76 1642.17 2844.22 1682.93 2826.11 1698.25C2732.91 1777.14 2632.92 1855.35 2523.71 1910.82C2488.54 1874.85 2458.04 1840 2425.4 1801.92C2432.04 1791.56 2439.98 1781.35 2447.54 1771.69C2564.38 1622.49 2653.83 1456.25 2740.89 1288.71C2750.09 1271 2760.06 1250.14 2770.76 1233.4C2776.38 1220.88 2782.23 1208.14 2790.64 1197.15Z"/><path fill="#F1331C" d="M2790.64 1197.15C2897.36 1282.85 2980.39 1356.28 3076.23 1454.17C3036.79 1495.82 2996.58 1537.26 2955.95 1577.72C2948.93 1584.71 2914.34 1620.09 2907.69 1624.59L2905.58 1621.19C2916.62 1613.34 2945.32 1582.93 2955.4 1572.28L3065.76 1453.84C2986.24 1371.99 2881.4 1275.4 2791.07 1206.75C2785.12 1215.93 2781.21 1231.01 2770.76 1233.4C2776.38 1220.88 2782.23 1208.14 2790.64 1197.15Z"/><path fill="#FEC70A" d="M2806.8 1296.95C2841.93 1307.63 2960.2 1421.4 2990.59 1452.32C2975.95 1470.7 2947.89 1498.02 2930.98 1516.24C2842.65 1611.44 2742.81 1696.88 2636.88 1772.06C2609.82 1790.96 2569.06 1819.17 2539.87 1832.83C2525.72 1818.12 2516.97 1807.22 2509.31 1788.4C2523.87 1763.46 2546.82 1736.84 2563.7 1712.61C2632.32 1614.11 2687.54 1507.86 2747.05 1403.91C2763.66 1374.89 2787.46 1320.66 2806.8 1296.95Z"/><path fill="#E93D1B" d="M2817.57 1394.62L2823.4 1386.59C2832.88 1387.4 2848.73 1405.69 2855.3 1413.45C2872.8 1434.15 2889.91 1460.45 2873.42 1486.61C2865.44 1504.75 2819.18 1559.74 2802.23 1571.05C2784.94 1588.63 2771.82 1601.67 2752.97 1617.74C2730.97 1641.98 2643.63 1705.27 2614.15 1727.17C2695.43 1607.99 2751.9 1523.43 2817.57 1394.62Z"/><path fill="#F1331C" d="M2817.57 1394.62L2823.4 1386.59C2832.88 1387.4 2848.73 1405.69 2855.3 1413.45C2872.8 1434.15 2889.91 1460.45 2873.42 1486.61C2875.07 1467.53 2876.63 1460.29 2866.94 1441.29C2857.74 1423.28 2837.41 1400.88 2817.57 1394.62Z"/><path fill="#F1331C" d="M2752.97 1617.74C2752.6 1602.67 2784.28 1573.25 2796.67 1568.43L2802.23 1571.05C2784.94 1588.63 2771.82 1601.67 2752.97 1617.74Z"/><path fill="#FEC70A" d="M1365.45 969.075C1394.33 984.452 1558.63 1385.71 1585.72 1444.97C1623.92 1528.56 1671.04 1632.29 1714.79 1716.82C1729.93 1746.08 1753.57 1788.08 1767.32 1817.64C1706.93 1874.43 1650.58 1934.97 1587.13 1988.96C1495 1952.54 1429.57 1920.52 1343.33 1875.02C1201.84 1798.79 1062.28 1693.13 941.733 1587.12C900.756 1551.08 859.308 1514.43 822.621 1473.94C837.259 1450.89 900.391 1384.65 921.264 1363.85C1058.64 1226.98 1212.39 1087.92 1365.45 969.075Z"/><path fill="#E93D1B" d="M1300.99 1197.57C1308.75 1213.96 1327.73 1244.13 1337.57 1262.02C1339.77 1265.94 1341.6 1268.91 1343.35 1273.07C1353.43 1287.41 1372.75 1326 1382.25 1343.24L1469.58 1501.28C1474.93 1508.8 1476.87 1511.46 1480.85 1519.65C1530.18 1601.28 1577.83 1680.42 1635.92 1756.22C1642.53 1764.84 1666.89 1796.85 1667 1805.92L1663.45 1810.38C1634.87 1842.88 1601.26 1881.2 1570.25 1910.93C1504.56 1882.79 1428.57 1825.37 1371.56 1782C1350.63 1766.08 1315.98 1739.64 1297.32 1721.35C1284.25 1711.24 1270.94 1699.42 1258.31 1688.63C1250.7 1683.38 1247.8 1680.38 1241.07 1673.86C1213.59 1649.02 1182.16 1620.63 1156.68 1594.3C1152.53 1591.62 1119.4 1558.12 1114.81 1553.35C1083.47 1520.79 1049.23 1488.4 1018.84 1455.21C1019.49 1448.99 1020.92 1449.48 1026.15 1443.71C1081.83 1388.29 1139.02 1335.91 1198.34 1284.43C1230.99 1256.09 1270.37 1227.67 1300.99 1197.57Z"/><path fill="#F1331C" d="M1300.99 1197.57C1308.75 1213.96 1327.73 1244.13 1337.57 1262.02C1332.8 1261.33 1328.74 1260.96 1325.82 1256.74C1315.44 1241.76 1308.99 1226.79 1298.73 1211.53C1281.5 1224 1265.64 1237.57 1249.33 1251.17C1174.38 1313.63 1100.24 1378.29 1031.91 1448.02C1027.91 1447.33 1029.82 1447.85 1026.15 1443.71C1081.83 1388.29 1139.02 1335.91 1198.34 1284.43C1230.99 1256.09 1270.37 1227.67 1300.99 1197.57Z"/><path fill="#F1331C" d="M1663.45 1810.38C1661.65 1809.78 1659.86 1809.17 1658.07 1808.57C1657.82 1800.19 1640.79 1777.29 1637.56 1772.82C1588.47 1704.86 1540.55 1636.46 1497.92 1564.22C1490.72 1552.03 1477.33 1533.12 1480.85 1519.65C1530.18 1601.28 1577.83 1680.42 1635.92 1756.22C1642.53 1764.84 1666.89 1796.85 1667 1805.92L1663.45 1810.38Z"/><path fill="#F1331C" d="M1469.58 1501.28C1457.58 1496.1 1449.75 1485.61 1444.67 1473.99C1432.73 1446.65 1335.99 1290.67 1343.35 1273.07C1353.43 1287.41 1372.75 1326 1382.25 1343.24L1469.58 1501.28Z"/><path fill="#F1331C" d="M1156.68 1594.3C1171.9 1595.4 1221.85 1647.79 1236.08 1660.87C1241.6 1665.94 1240.75 1667.39 1241.07 1673.86C1213.59 1649.02 1182.16 1620.63 1156.68 1594.3Z"/><path fill="#F1331C" d="M1258.31 1688.63C1264.11 1687.18 1263.59 1685.87 1268.89 1689.6C1277.09 1695.37 1296.61 1711.53 1297.32 1721.35C1284.25 1711.24 1270.94 1699.42 1258.31 1688.63Z"/><path fill="#FEC70A" d="M1110.19 1458.37C1109.2 1454.5 1107.4 1451.4 1110.49 1448.19C1149.62 1407.44 1241.1 1323.35 1285.98 1295.07C1309.5 1326.53 1332.79 1374.07 1351.44 1409.6C1406.64 1514.78 1465.63 1616.05 1532.08 1714.55C1546.71 1736.24 1573.13 1766.23 1583.57 1788.83C1575.44 1807.68 1565.19 1815.73 1557.75 1830.41L1558.74 1831.97L1555.55 1835.98C1539.92 1841.48 1481.64 1798.57 1467.46 1788.48C1357.43 1710.18 1254.11 1620.92 1160.6 1523.52C1146.12 1508.44 1115.03 1481.17 1107.12 1462.83L1110.19 1458.37Z"/><path fill="#F1331C" d="M1557.75 1830.41L1558.74 1831.97L1555.55 1835.98C1539.92 1841.48 1481.64 1798.57 1467.46 1788.48C1357.43 1710.18 1254.11 1620.92 1160.6 1523.52C1146.12 1508.44 1115.03 1481.17 1107.12 1462.83L1110.19 1458.37C1220.09 1584.54 1354.19 1698.97 1490.46 1795.2C1503.73 1804.58 1542.75 1833.53 1557.75 1830.41Z"/><path fill="#E93D1B" d="M1252.41 1526.65C1251.73 1526.03 1251.06 1525.41 1250.38 1524.78C1187.18 1458.66 1212.65 1436 1270.53 1381.75C1278.84 1399.99 1288.42 1418.13 1297.68 1435.95C1313.58 1466.88 1335.54 1503.83 1353.66 1533.96C1357.34 1539.75 1368.54 1556.59 1370.54 1561.94C1408.19 1613.75 1439.24 1670.85 1479.3 1721.59C1459.06 1708.09 1440.02 1694.5 1420.27 1680.31C1413.49 1675.71 1409.81 1673.04 1403.68 1667.64C1369.09 1646.05 1276.48 1558.47 1252.41 1526.65Z"/><path fill="#F1331C" d="M1420.27 1680.31C1428.77 1678.01 1427.06 1679.13 1436.99 1681.99L1438.78 1680.88C1430.7 1658.84 1368.87 1581.03 1366 1565.24L1370.54 1561.94C1408.19 1613.75 1439.24 1670.85 1479.3 1721.59C1459.06 1708.09 1440.02 1694.5 1420.27 1680.31Z"/><path fill="#F1331C" d="M1252.41 1526.65C1251.68 1526.53 1387.2 1648.34 1404.52 1662.02C1404.3 1664.47 1404.41 1665.33 1403.68 1667.64C1369.09 1646.05 1276.48 1558.47 1252.41 1526.65Z"/><path fill="#F1331C" d="M1353.66 1533.96L1347.36 1535.17C1336.45 1528.49 1303.65 1465.92 1296.47 1450.84C1292.96 1443.48 1294.93 1442.27 1297.68 1435.95C1313.58 1466.88 1335.54 1503.83 1353.66 1533.96Z"/><path fill="#E93D1B" d="M2778.36 1935.99L2902.68 1936.06C2904.52 2014.2 2902.64 2100.35 2902.36 2178.96L2902.27 2544.68L2779.08 2544.26C2777.99 2530.46 2778.38 2509.64 2778.2 2495.33C2729.99 2550.85 2665.73 2563.72 2596.51 2546.99C2515.64 2522.89 2472.1 2454.68 2464.27 2373.01C2457.9 2301.08 2466.46 2220 2514.09 2162.25C2578.74 2083.84 2700.25 2073.71 2777.94 2137.27C2778.54 2083.49 2776.93 2029.71 2777.09 1975.93C2777.13 1962.6 2776.88 1949.26 2778.36 1935.99ZM2695.93 2456.52C2734.82 2452.22 2756.92 2434.09 2777.7 2402.96C2779.83 2356.94 2779.05 2277.67 2776.89 2230.71C2752.16 2199.87 2711.56 2184.92 2672.61 2190.7C2650.84 2194.42 2628.25 2205.9 2616.22 2224.85C2565.85 2304.11 2573.61 2457.4 2695.93 2456.52Z"/><path fill="#E93D1B" d="M479.481 1930.83C553.702 1924.56 637.123 1952.04 698.464 1993.14C694.483 2003.81 686.01 2019 681.143 2030.01C671.683 2051.41 662.418 2072.78 653.166 2094.27C580.449 2044.66 476.793 2024.03 399.954 2078.07C311.667 2140.16 310.164 2306.18 370.629 2387.11C393.558 2417.8 433.907 2443.44 472.808 2447.5C511.257 2451.58 560.453 2450.26 592.589 2425.71L592.425 2316.27C555.567 2315.64 517.71 2315.94 480.768 2315.8C479.32 2283.91 480.231 2247.47 480.348 2215.22C506.365 2213.91 540.843 2214.93 567.5 2214.94L708.313 2215.77L708.107 2492.73C643.885 2530.19 598.978 2549.41 522.477 2554.94C443.816 2560.92 350.292 2538.4 289.946 2485.81C163.642 2375.72 161.043 2147.48 272.825 2026.35C329.185 1965.27 397.629 1935.48 479.481 1930.83Z"/><path fill="#E93D1B" d="M1732.06 2105.98C1773.21 2106.48 1824.71 2105.84 1864.96 2108.08C1886.74 2201.04 1915.64 2295.07 1937.77 2387.77C1940.45 2397.14 1943.1 2406.95 1946.03 2416.21C1948.09 2409.31 1951.32 2400.62 1951.61 2393.76C1966.11 2353.37 1980.51 2289.27 1992.03 2246.9C2004.21 2202.07 2019.01 2151 2029.02 2106.19L2146.7 2107.6C2168.94 2182.2 2186.92 2258.05 2209.19 2332.65C2212.99 2345.38 2216.91 2358.11 2219.71 2371.1C2222.49 2381.72 2225.61 2395.69 2229.83 2405.52C2231.7 2399.4 2235.87 2387.67 2235.81 2381.83C2250.46 2338.92 2262.85 2287.14 2274.47 2243.34C2286.36 2198.5 2300.43 2152.38 2311.25 2107.51C2351.72 2107.5 2396.67 2106.7 2436.84 2108.25C2416.41 2169.21 2400.9 2231.28 2381.42 2292.34C2354.92 2375.43 2331.22 2460.73 2303.64 2543.37C2260.67 2545.14 2212.71 2544.15 2169.38 2544.16C2148.74 2478.64 2131.16 2411.11 2110.36 2345.54C2103.32 2323.36 2094.93 2291.11 2086.68 2270.03C2069.6 2350.62 2031.74 2459.9 2009.35 2543.52L1869.71 2544.9L1732.06 2105.98Z"/><path fill="#E93D1B" d="M812.685 1935.87C852.679 1934.82 898.739 1935.98 939.171 1936.08C942.24 2002.27 939.474 2090.44 939.408 2158.33C993.512 2087.26 1107.39 2071.56 1173.57 2133.22C1231.66 2187.35 1219.52 2286.27 1219.6 2358.59L1220.49 2545.28L1097.32 2544.98L1097.22 2375.5C1097.34 2328.94 1106.37 2260.41 1079.4 2221.78C1051.51 2181.83 989.151 2199.3 959.861 2228.08C935.185 2252.32 938.042 2271.07 938.098 2302.66C938.242 2383.3 939.821 2464.11 939.008 2544.74L813.035 2544.64C812.366 2520.73 812.633 2495.33 812.873 2471.34C814.655 2293.06 810.629 2114.08 812.685 1935.87Z"/><path fill="#E93D1B" d="M1477.55 2097C1641.92 2090.98 1696.73 2151.86 1693.27 2306.1C1691.81 2370.79 1689.46 2486.53 1702.67 2544.66C1681.16 2543.96 1595.82 2545.94 1582.12 2542.43C1573.86 2532.16 1575.29 2512.31 1574.79 2498.57C1512.11 2567.21 1398.95 2573 1333.28 2506.05C1283.59 2443.95 1298.77 2347.11 1368.68 2306.65C1426.62 2273.12 1503.23 2277.65 1568.91 2276.8C1568.55 2215.7 1548.42 2188.12 1482.07 2190.58C1435.06 2192.33 1400.91 2211.41 1362.61 2236.96C1351.9 2214.98 1337.24 2180.15 1328.62 2157.5C1373.14 2116.94 1419.64 2103.98 1477.55 2097ZM1485.27 2462.4C1523.15 2458.2 1547.15 2453.17 1569.73 2419.44C1570.81 2396.53 1571.02 2376.88 1570.84 2353.99C1547.96 2353.41 1531.88 2353.62 1508.86 2355.18C1481.18 2356.79 1457.33 2359.98 1437.56 2382.35C1420.25 2401.93 1419.63 2432.62 1441.62 2449C1456.21 2460.01 1468.18 2460.58 1485.27 2462.4Z"/><path fill="#E93D1B" d="M3170.55 2096.97C3341.28 2087.18 3404.37 2203.67 3386.84 2360.39C3294.45 2363.14 3190.8 2360.92 3097.62 2360.97C3115.62 2461.27 3206.18 2483.08 3289.8 2446.3C3304.53 2439.82 3318.48 2432.04 3332.65 2424.43C3337.56 2433.2 3343.47 2442.4 3348.76 2451.03C3358.01 2466.19 3365.45 2479.58 3373.81 2495.28C3339.89 2525.22 3288.19 2545.43 3244 2552.03C3113.3 2571.11 2993.16 2502.43 2975.83 2364.88C2963.71 2268.6 2993.19 2173.41 3080.72 2122.68C3109.74 2105.85 3137.63 2100.99 3170.55 2096.97ZM3197 2279.89L3278.75 2279.85C3272.1 2223.23 3248.82 2177.91 3183.94 2182.56C3155.26 2186.55 3139.18 2196.44 3120.56 2219.24C3114.45 2226.71 3086.39 2277.63 3107.56 2279.26C3135.62 2281.43 3168.47 2280.12 3197 2279.89Z"/><path fill="#E93D1B" d="M1181.37 2732.83C1228.39 2729.72 1252.33 2737.02 1296.66 2742.79C1310.82 2744.63 1361.19 2735.83 1380.39 2734.56L1379.92 2793.88C1366.76 2798.92 1356.73 2800.07 1342.86 2802.33C1365.32 2889.85 1318.78 2946.17 1230.45 2949.67C1213.69 2950.34 1181.83 2949.24 1168.43 2958.69C1164.68 2965.6 1165.52 2961.9 1166.64 2970.32C1180.57 2992.11 1248.1 2986.12 1274.23 2988.23C1352.09 2994.54 1406.82 3051.55 1359.37 3129.56C1310.79 3191.02 1216.27 3193.35 1146.05 3178.85C1063.69 3161.84 1011.53 3084.75 1106.5 3032.85C1072.61 2997.7 1075.56 2960.5 1116.55 2933.09C1043.33 2874.92 1063.6 2769.26 1151.37 2739.9C1161.15 2736.63 1171.26 2734.82 1181.37 2732.83ZM1217.6 2891.17C1233.29 2887.91 1250.57 2883.75 1258.01 2868.27C1278.11 2826.51 1249.09 2793.95 1207.98 2792.62C1176.36 2800.67 1152.11 2819.32 1160.33 2857.26C1166.43 2885.43 1192.56 2889.81 1217.6 2891.17ZM1251.01 3117.45C1267.99 3114.16 1294.62 3102.65 1289.92 3082.22C1283.23 3053.18 1202.14 3054.07 1179.72 3054.6C1166.6 3057.1 1136.85 3068.84 1142.81 3086.02C1155.78 3123.38 1220.91 3122.97 1251.01 3117.45Z"/><path fill="#E93D1B" d="M3505.43 2732.98C3552.61 2729.04 3571.44 2736.84 3615.86 2743.22C3630.44 2745.32 3682.68 2737.55 3700.87 2736.03C3701.4 2754.9 3701.08 2775.66 3701.16 2794.67C3687.57 2796.22 3671.58 2799.65 3657.92 2802.23C3674.63 2840.89 3673.72 2878.36 3648.38 2911.04C3611.95 2958.02 3553 2946.96 3501.81 2948.31C3495.56 2948.48 3493.29 2951.04 3489.93 2955.6C3481.91 3002.62 3570.91 2982.09 3598.7 2988.41C3620.53 2993.38 3634.63 2992.09 3655.12 3005.8C3700.41 3036.11 3707.89 3086.69 3678.08 3130.82C3627.28 3190.68 3519.61 3194.42 3449.6 3172.89C3371.91 3149 3351.25 3073.09 3434.15 3032.81C3396.5 2999.04 3399.01 2955.17 3446.71 2933.59C3392.27 2898.91 3379.41 2836.83 3415.07 2782.06C3436.7 2748.84 3468.71 2739.49 3505.43 2732.98ZM3531.99 2893.36C3555.28 2891.64 3566.61 2888.47 3582.33 2869.94C3591.9 2827.45 3580.57 2794.88 3531.7 2792.54C3515.32 2795.67 3495.49 2799.9 3487.06 2815.37C3463.49 2858.61 3488.16 2890.54 3531.99 2893.36ZM3584.08 3114.93C3633.91 3091.25 3612.65 3065.81 3569.47 3058.91C3544.79 3054.96 3519.22 3054.53 3494.39 3056.87C3483.09 3060.85 3457.75 3075.53 3465.65 3090.34C3485.31 3127.16 3548.85 3122.73 3582.35 3115.34L3584.08 3114.93Z"/><path fill="#E93D1B" d="M3734.21 2106.49C3777.16 2107.67 3820.37 2107.65 3863.34 2107.89C3857.9 2117.22 3849.39 2127.36 3842.96 2136.24C3798.41 2197.82 3757.08 2261.61 3713.23 2323.73C3766.26 2397.5 3814.28 2468.82 3864.59 2544.33L3730.48 2544.05C3704.93 2505.33 3665.5 2442.54 3643.63 2403.13C3615.46 2448.18 3587.75 2494.89 3558.26 2538.9C3549.66 2547.53 3430.66 2546.43 3427.43 2539.87C3431.6 2531.46 3436.25 2524.82 3441.41 2517.06C3483.86 2453.26 3526.95 2390.16 3570.99 2327.45C3540.46 2265.42 3485.36 2200 3448.58 2140.06C3441.6 2128.69 3434.06 2120.59 3428.69 2107.78L3568.3 2107.93L3649.03 2238.71C3675.87 2205.54 3708.15 2136.32 3734.21 2106.49Z"/><path fill="#E93D1B" d="M399.748 2636.59L664.72 2636.83L664.516 2714.95C610.528 2716.49 550.245 2714.61 495.201 2715.03L495.214 2803.88L643.518 2804.7C644.843 2826.64 643.902 2858.25 643.872 2880.89C595.757 2881.86 543.869 2880.79 495.512 2880.67L495.627 2915.07L495.886 2974.34L671.782 2974.34C672.082 2998.83 671.706 3023.26 671.427 3047.75C587.17 3050.92 485.323 3047.91 399.105 3048.53L399.239 2755.29C399.261 2730.82 396.527 2656.33 399.748 2636.59Z"/><path fill="#E93D1B" d="M2389.36 2733.01C2483.63 2726.35 2545.82 2766.87 2558.49 2865.46C2560.2 2878.73 2562.41 2904.87 2553.99 2915.32C2538.35 2920.62 2378.38 2917.83 2349.09 2918.39C2362.11 2973.04 2400.63 2992.62 2454.41 2986.19C2483.08 2982.77 2491 2974.04 2515.96 2965.36C2521.4 2967.07 2520.83 2968.68 2524.92 2974.77C2533.92 2990.6 2541.53 3003.85 2549.07 3020.53C2485.52 3068.57 2390.01 3075.53 2322.39 3031.66C2250 2983.13 2240.05 2862.79 2287.36 2794.17C2313.53 2756.23 2345.65 2741.04 2389.36 2733.01ZM2426.31 2863.23L2476.09 2862.99C2467.88 2819.18 2453.91 2793.05 2404.52 2796.49C2377.94 2804.35 2370.3 2815.22 2355.12 2839.4C2351.51 2845.16 2350.23 2850.77 2351.51 2857.5L2355.26 2862.71C2368.69 2864.62 2411 2863.39 2426.31 2863.23Z"/><path fill="#E93D1B" d="M2056.31 2732.73C2065.26 2732.12 2073.67 2732.06 2082.41 2731.88C2164.22 2730.17 2219.9 2794.66 2223.55 2873.52C2224.21 2887.68 2223.88 2902.05 2223.69 2916.37C2156.38 2918.99 2080.81 2917.34 2012.46 2918.42C2019.21 2944.08 2025.56 2961.99 2051.29 2977.03C2080.68 2994.2 2122.21 2990.28 2153.23 2978.7C2163.38 2974.91 2170.33 2968.3 2182.83 2964.63C2189.32 2967.59 2187.48 2967.19 2191.8 2974.91C2197.89 2987.91 2207.94 3004.19 2215.38 3016.96C2157.36 3068.76 2060.06 3076.53 1994.72 3034.15C1918.04 2985.09 1905.71 2866.6 1954.58 2794.17C1980.35 2755.97 2012.54 2741.27 2056.31 2732.73ZM2016.5 2863.95L2089.5 2863.95C2106.18 2863.89 2125.7 2864.31 2142.13 2863.58C2130.2 2819.54 2121.47 2790.56 2069.35 2796.51C2031.43 2809.65 2026.05 2828.12 2016.5 2863.95Z"/><path fill="#E93D1B" d="M815.071 2774.16C843.767 2744.89 862.639 2730.37 905.373 2730.26C1052.05 2729.87 1014.94 2881.13 1019.9 2977.07C1021.05 2999.27 1020.25 3024.89 1019.88 3047.11C991.271 3047.83 955.969 3048.3 927.504 3047.26L927.39 2939.92C927.558 2905.24 933.782 2849.64 908.463 2823.42C889.293 2803.56 845.625 2811.46 828.906 2831.62C811.45 2852.67 816.224 2886.72 816.672 2912.7L818.159 3004.8C818.31 3016.22 819.588 3038.29 815.146 3047.76C786.839 3047.08 755.885 3047.76 727.37 3047.82L727.277 2738C748.119 2737.84 791.718 2735.7 811.952 2740.28C814.305 2740.82 814.247 2743.94 815.053 2747.16L815.071 2774.16Z"/><path fill="#F1331C" d="M727.277 2738C748.119 2737.84 791.718 2735.7 811.952 2740.28C814.305 2740.82 814.247 2743.94 815.053 2747.16C812.944 2754.8 813.976 2756.49 809.004 2760.5C805.628 2756.27 807.055 2752.04 807.06 2745.06L804.776 2746.68C790.203 2745.54 744.31 2740.91 740.638 2749.48C733.762 2765.53 738.04 2854.91 738.306 2872.25C739.18 2929.19 737.339 2983.74 739.025 3039.02C748.229 3039.17 808.435 3041.13 811.994 3037.97L812.44 3030.01C814.697 3035.94 814.556 3041.25 815.146 3047.76C786.839 3047.08 755.885 3047.76 727.37 3047.82L727.277 2738Z"/><path fill="#E93D1B" d="M1750.6 2732.71C1883.52 2723.66 1875.44 2824.24 1875.48 2920.5L1875.51 3048.43L1785.32 3048.41C1784.74 3007.07 1786.14 2966.43 1786.1 2924.01C1786.06 2885.33 1794.3 2811.51 1735.44 2811.16C1717.51 2811.06 1704.68 2818.51 1690.97 2829.64C1668.35 2854.59 1674.69 2899.44 1674.83 2931.85L1675.01 3048.23L1583.21 3048.36C1583.21 2946.07 1581.58 2841.72 1583.15 2739.69C1612.61 2738.95 1644.56 2739.56 1674.21 2739.55L1673.93 2782.21C1699.5 2752.51 1712.07 2741.99 1750.6 2732.71Z"/><path fill="#E93D1B" d="M3212.86 2732.78C3351.45 2724.41 3340.22 2834.2 3340.01 2931.99L3339.59 3047.61C3311.48 3048.42 3280.53 3047.78 3252.2 3047.77L3252.14 2926.46C3252.24 2899.24 3256.23 2855.72 3242.63 2832.05C3224.56 2800.59 3189.04 2811.43 3163.02 2826.1C3156.02 2832.52 3146.12 2840.97 3144.6 2850.94C3140.61 2877.11 3142.25 2904.85 3142.37 2931.42L3142.54 3047.46C3113.51 3048.17 3082.23 3047.62 3053.02 3047.65C3050.44 2951.65 3050.95 2834.19 3052.72 2738.12L3140.55 2737.89C3140.34 2750.17 3139.71 2762.98 3139.28 2775.3C3162.95 2751.64 3180.75 2740.86 3212.86 2732.78Z"/><path fill="#E93D1B" d="M2778.83 2734.53C2862.96 2726.91 2831.27 2771.05 2818.19 2827.25C2773.12 2811.39 2724.91 2812.33 2709.89 2870.44C2704.68 2890.55 2707.27 2925.33 2707.4 2947.32L2707.62 3048.31L2633.5 3048.75C2627.32 3048.76 2621.61 3049.75 2616.93 3046.31C2614.35 3025.59 2615.92 2967.66 2615.98 2943.68L2616.44 2739.1C2642.67 2737.76 2680.79 2739.15 2707.93 2739.28C2707.53 2756.1 2707.44 2772.76 2707.36 2789.58L2709.02 2787.27C2728.21 2760.69 2744.36 2740.09 2778.83 2734.53Z"/><path fill="#E93D1B" d="M1430.83 2736.98C1461.11 2737.19 1490.11 2737.53 1520.35 2738.84C1520.22 2771 1521.69 3042.88 1517.33 3049.65C1492.56 3049.71 1451.68 3050.95 1428.24 3048.72C1428.06 2963.29 1426.7 2830.59 1428.18 2740.96C1429.06 2739.63 1429.95 2738.31 1430.83 2736.98Z"/><path fill="#E93D1B" d="M2887.27 2737.88C2918.07 2737.59 2949.37 2738.39 2980.2 2738.9C2978.42 2840.72 2979.36 2945.03 2979.13 3047.02C2959.98 3049.11 2910.1 3047.73 2888.44 3047.64L2887.27 2737.88Z"/><path fill="#E93D1B" d="M1459.07 2618.83C1528.19 2607.11 1561.43 2686.43 1487.84 2711.48C1445.24 2715.42 1430.93 2707.73 1418.97 2666.1C1425 2641.29 1434.51 2627.12 1459.07 2618.83Z"/><path fill="#E93D1B" d="M2929.6 2618.36C2957.75 2616.85 2968.28 2622.38 2986.23 2643.26C2990.88 2662.73 2990.7 2667.64 2986.15 2687.17C2972.55 2703.48 2966.14 2709.29 2945.4 2713.46C2869.44 2719.08 2861.04 2629.27 2929.6 2618.36Z"/><path fill="#FDFEFE" fill-opacity="0.078431375" d="M2219.71 2371.1L2225.44 2378.36L2228.93 2378.35L2228.56 2376.32L2231.83 2377.41L2233.15 2381.13L2235.81 2381.83C2235.87 2387.67 2231.7 2399.4 2229.83 2405.52C2225.61 2395.69 2222.49 2381.72 2219.71 2371.1Z"/><path fill="#FDFEFE" fill-opacity="0.086274512" d="M1937.77 2387.77L1943.26 2390.03L1945.37 2386.7L1947.84 2387.39L1948.7 2392.88L1951.61 2393.76C1951.32 2400.62 1948.09 2409.31 1946.03 2416.21C1943.1 2406.95 1940.45 2397.14 1937.77 2387.77Z"/></svg>